<svg xmlns="http://www.w3.org/2000/svg" width="134" height="134" viewBox="0 0 134 134"><rect width="100%" height="100%" fill="#DDDDDD"/><path fill="#999999" d="M32.695 71.84h2.34v1.67h-7.2v-1.67h2.64v-7.58q0-.45.03-.93l-1.88 1.57q-.16.12-.32.15-.15.04-.29.01t-.25-.1q-.11-.06-.16-.14l-.7-.97 3.96-3.37h1.83zm5.61-7.51-1.17-.21q.13-.93.52-1.64t.97-1.18 1.33-.71 1.62-.24q.9 0 1.62.26.72.25 1.24.71.51.45.78 1.07.28.61.28 1.32 0 .62-.14 1.09t-.4.83q-.26.35-.65.59t-.87.4q1.17.37 1.74 1.13.58.76.58 1.9 0 .97-.36 1.72-.36.74-.97 1.25t-1.42.77q-.8.26-1.71.26-.98 0-1.71-.22-.72-.23-1.26-.67t-.92-1.08-.65-1.47l.98-.41q.39-.16.73-.08.33.07.49.36.16.32.35.62.2.31.47.55.27.23.63.38t.87.15q.56 0 .99-.18.42-.19.7-.48.29-.3.43-.67.14-.36.14-.73 0-.47-.1-.85t-.42-.65q-.31-.27-.9-.43-.59-.15-1.58-.15v-1.58q.82-.01 1.36-.16.54-.14.86-.4.32-.25.44-.61.13-.36.13-.79 0-.92-.51-1.4-.52-.48-1.37-.48-.4 0-.73.12-.33.11-.6.31-.26.2-.44.47t-.27.6q-.16.41-.4.55-.25.13-.7.06m10.74 4.27h3.96v-4.25q0-.61.09-1.33zm5.9 0h1.64v1.29q0 .18-.12.31t-.33.13h-1.19v3.18h-1.94v-3.18h-5.49q-.22 0-.39-.14t-.22-.34l-.23-1.13 6.16-8.23h2.11zm15.94 1.93-1.18 1.16-3.05-3.05-3.08 3.07-1.18-1.16 3.08-3.09-2.93-2.93 1.17-1.17 2.93 2.93 2.92-2.91 1.18 1.17-2.92 2.92zm12.32 1.31h2.34v1.67h-7.2v-1.67h2.64v-7.58q0-.45.02-.93l-1.87 1.57q-.16.12-.32.15-.16.04-.3.01-.13-.03-.24-.1-.11-.06-.16-.14l-.71-.97 3.97-3.37h1.83zm5.61-7.51-1.17-.21q.13-.93.52-1.64t.97-1.18 1.33-.71 1.61-.24q.9 0 1.63.26.72.25 1.24.71.51.45.78 1.07.28.61.28 1.32 0 .62-.14 1.09t-.4.83q-.26.35-.65.59t-.87.4q1.17.37 1.74 1.13.58.76.58 1.9 0 .97-.36 1.72-.36.74-.97 1.25-.62.51-1.42.77-.81.26-1.71.26-.98 0-1.71-.22-.73-.23-1.27-.67t-.91-1.08q-.38-.64-.65-1.47l.98-.41q.39-.16.72-.08.34.07.49.36.17.32.36.62.19.31.46.55.27.23.64.38.36.15.87.15.56 0 .99-.18.42-.19.7-.48.29-.3.43-.67.14-.36.14-.73 0-.47-.1-.85t-.42-.65q-.31-.27-.9-.43-.59-.15-1.58-.15v-1.58q.82-.01 1.36-.16.54-.14.86-.4.32-.25.44-.61.13-.36.13-.79 0-.92-.51-1.4-.52-.48-1.37-.48-.4 0-.73.12-.33.11-.6.31t-.45.47-.27.6q-.15.41-.4.55-.24.13-.69.06m10.74 4.27h3.96v-4.25q0-.61.08-1.33zm5.9 0h1.64v1.29q0 .18-.12.31t-.33.13h-1.19v3.18h-1.94v-3.18h-5.49q-.22 0-.39-.14t-.22-.34l-.23-1.13 6.16-8.23h2.11z"/></svg>