<svg xmlns="http://www.w3.org/2000/svg" width="260" height="146" viewBox="0 0 260 146"><rect width="100%" height="100%" fill="#DDDDDD"/><path fill="#999999" d="M61.035 81.625h6.49q.7 0 1.11.4.41.39.41 1.04v2.59h-17.36v-1.44q0-.43.19-.91.18-.49.58-.87l7.69-7.7q.96-.98 1.72-1.87.76-.9 1.27-1.77.51-.88.78-1.78t.27-1.9q0-.91-.26-1.6-.27-.69-.75-1.16t-1.15-.71q-.68-.24-1.52-.24-.77 0-1.42.22-.66.22-1.17.62-.5.39-.85.91-.35.53-.53 1.16-.3.8-.77 1.07-.47.26-1.36.12l-2.28-.4q.26-1.82 1.02-3.2.75-1.37 1.88-2.29t2.59-1.38q1.46-.47 3.14-.47 1.75 0 3.2.52t2.49 1.46q1.03.95 1.61 2.28.57 1.33.57 2.95 0 1.4-.41 2.59t-1.1 2.28q-.69 1.08-1.62 2.1-.92 1.01-1.94 2.06l-5.71 5.83q.83-.24 1.64-.37.81-.14 1.55-.14m26.27-21.28-7.51 9.19-.88 1.09q.74-.37 1.59-.57t1.83-.2q1.43 0 2.79.47 1.35.47 2.39 1.43 1.03.95 1.66 2.37.63 1.41.63 3.3 0 1.77-.65 3.32t-1.82 2.7q-1.17 1.16-2.82 1.82-1.66.67-3.65.67-2.03 0-3.64-.65t-2.75-1.81-1.74-2.8q-.61-1.64-.61-3.63 0-1.79.73-3.67t2.25-3.91l6.04-8.1q.31-.42.92-.72.6-.3 1.39-.3zm-6.53 22.05q1.03 0 1.9-.35.86-.35 1.49-.98.62-.63.97-1.47.35-.85.35-1.85 0-1.09-.34-1.95-.33-.87-.94-1.47-.61-.61-1.47-.92-.86-.32-1.89-.32t-1.87.35-1.44.98q-.59.62-.93 1.47-.33.84-.33 1.82 0 1.05.29 1.92t.86 1.48 1.41.95 1.94.34m29.61-9.39q0 3.3-.71 5.75-.71 2.44-1.96 4.03t-2.96 2.37q-1.7.78-3.68.78t-3.67-.78-2.93-2.37-1.94-4.03q-.7-2.45-.7-5.75 0-3.33.7-5.76t1.94-4.03q1.24-1.59 2.93-2.37t3.67-.78 3.68.78q1.71.78 2.96 2.37 1.25 1.6 1.96 4.03t.71 5.76m-4.46 0q0-2.75-.41-4.55-.4-1.81-1.07-2.87-.68-1.07-1.55-1.5-.88-.43-1.82-.43-.93 0-1.79.43-.87.43-1.54 1.5-.66 1.06-1.05 2.87-.4 1.8-.4 4.55 0 2.74.4 4.55.39 1.8 1.05 2.87.67 1.06 1.54 1.49.86.43 1.79.43.94 0 1.82-.43.87-.43 1.55-1.49.67-1.07 1.07-2.87.41-1.81.41-4.55m32.25 6.86-2.29 2.25-5.94-5.93-5.98 5.97-2.29-2.26 5.98-6-5.7-5.71 2.27-2.27 5.71 5.7 5.67-5.67 2.31 2.28-5.69 5.69zm23.96 2.55h4.55v3.24h-14v-3.24h5.12v-14.75q0-.88.06-1.8l-3.64 3.04q-.32.25-.62.31-.31.06-.58.01-.27-.06-.48-.19t-.32-.29l-1.36-1.87 7.71-6.56h3.56zm11.49-6.3h7.7v-8.28q0-1.17.16-2.59zm11.47 0h3.18v2.5q0 .35-.23.61-.22.25-.64.25h-2.31v6.18h-3.77v-6.18h-10.67q-.44 0-.77-.27t-.42-.67l-.46-2.19 11.99-16.01h4.1zm20.72-15.77-7.51 9.19-.87 1.09q.73-.37 1.58-.57t1.83-.2q1.43 0 2.79.47t2.39 1.43q1.03.95 1.66 2.37.63 1.41.63 3.3 0 1.77-.65 3.32t-1.82 2.7q-1.17 1.16-2.82 1.82-1.66.67-3.65.67-2.03 0-3.64-.65t-2.75-1.81-1.74-2.8q-.61-1.64-.61-3.63 0-1.79.73-3.67t2.25-3.91l6.04-8.1q.31-.42.92-.72.6-.3 1.39-.3zm-6.53 22.05q1.03 0 1.9-.35.86-.35 1.49-.98.62-.63.97-1.47.35-.85.35-1.85 0-1.09-.33-1.95-.34-.87-.95-1.47-.61-.61-1.47-.92-.86-.32-1.89-.32t-1.87.35-1.44.98q-.59.62-.93 1.47-.33.84-.33 1.82 0 1.05.29 1.92t.86 1.48 1.41.95 1.94.34"/></svg>