<svg xmlns="http://www.w3.org/2000/svg" width="409" height="306" viewBox="0 0 409 306"><rect width="100%" height="100%" fill="#DDDDDD"/><path fill="#999999" d="M89.885 157.81h11.88v-12.78q0-1.8.25-3.99zm17.69 0h4.91v3.86q0 .54-.35.93t-1 .39h-3.56v9.53h-5.81v-9.53h-16.47q-.67 0-1.19-.42-.51-.42-.64-1.04l-.71-3.37 18.5-24.71h6.32zm36.26-4.81q0 5.1-1.1 8.87-1.09 3.77-3.02 6.22-1.93 2.46-4.56 3.66-2.64 1.2-5.69 1.2t-5.65-1.2q-2.61-1.2-4.53-3.66-1.91-2.45-2.99-6.22t-1.08-8.87q0-5.13 1.08-8.88 1.08-3.76 2.99-6.21 1.92-2.46 4.53-3.66 2.6-1.2 5.65-1.2t5.69 1.2q2.63 1.2 4.56 3.66 1.93 2.45 3.02 6.21 1.1 3.75 1.1 8.88m-6.89 0q0-4.24-.62-7.02t-1.66-4.43-2.39-2.31-2.81-.66q-1.43 0-2.76.66-1.34.66-2.37 2.31-1.02 1.65-1.63 4.43t-.61 7.02.61 7.02 1.63 4.43q1.03 1.64 2.37 2.31 1.33.66 2.76.66 1.46 0 2.81-.66 1.35-.67 2.39-2.31 1.04-1.65 1.66-4.43t.62-7.02m17.15-7.8q0 3.26 1.69 4.98 1.68 1.71 4.79 1.71 1.62 0 2.89-.51t2.13-1.4q.86-.9 1.31-2.11.44-1.22.44-2.62 0-1.59-.48-2.85-.49-1.25-1.38-2.12-.89-.86-2.12-1.32t-2.68-.46q-1.52 0-2.73.5-1.22.5-2.08 1.39t-1.32 2.12-.46 2.69m-3.27 27.32 12.12-15.15q.46-.56.87-1.1.4-.54.78-1.08-1.35.86-2.97 1.31-1.62.44-3.4.44-2.03 0-3.97-.7t-3.46-2.12q-1.51-1.42-2.44-3.51t-.93-4.9q0-2.62.97-4.91.97-2.3 2.73-4.03 1.75-1.73 4.21-2.73 2.46-.99 5.43-.99 2.99 0 5.38.94 2.39.95 4.08 2.65t2.59 4.07q.91 2.38.91 5.22 0 1.8-.31 3.42t-.88 3.12-1.38 2.93-1.81 2.84l-8.93 12.74q-.46.65-1.38 1.09-.92.45-2.08.45zm67.2-8.94-3.53 3.49-9.16-9.16-9.23 9.21-3.54-3.48 9.24-9.26-8.8-8.81 3.51-3.51 8.8 8.81 8.75-8.75 3.56 3.51-8.78 8.77zm22.47-18.6-3.51-.62q.4-2.81 1.56-4.93 1.17-2.12 2.91-3.54 1.74-1.41 3.99-2.13 2.26-.71 4.85-.71 2.7 0 4.87.77 2.18.76 3.71 2.13 1.54 1.36 2.37 3.2.82 1.83.82 3.97 0 1.86-.42 3.28t-1.2 2.47-1.94 1.78-2.62 1.21q3.51 1.11 5.24 3.38 1.72 2.27 1.72 5.7 0 2.91-1.08 5.15-1.08 2.25-2.91 3.77-1.84 1.53-4.25 2.31-2.42.78-5.12.78-2.94 0-5.13-.67-2.19-.68-3.81-2t-2.75-3.24q-1.14-1.92-1.95-4.43l2.95-1.21q1.16-.49 2.17-.26t1.47 1.09q.49.95 1.07 1.87.58.91 1.39 1.63.81.71 1.9 1.16 1.1.45 2.61.45 1.7 0 2.97-.56 1.27-.55 2.12-1.44t1.27-1.99q.42-1.09.42-2.2 0-1.4-.3-2.55t-1.24-1.96q-.95-.81-2.72-1.26-1.77-.46-4.74-.46v-4.76q2.46-.02 4.08-.46 1.62-.43 2.58-1.2t1.34-1.85q.37-1.08.37-2.37 0-2.76-1.54-4.19-1.53-1.43-4.1-1.43-1.19 0-2.19.34-.99.34-1.79.94-.8.61-1.34 1.42t-.81 1.78q-.46 1.25-1.2 1.65-.74.41-2.09.19m54.86 8.02q0 5.1-1.09 8.87t-3.03 6.22q-1.93 2.46-4.56 3.66t-5.68 1.2-5.66-1.2q-2.6-1.2-4.52-3.66-1.92-2.45-3-6.22t-1.08-8.87q0-5.13 1.08-8.88 1.08-3.76 3-6.21 1.92-2.46 4.52-3.66 2.61-1.2 5.66-1.2t5.68 1.2 4.56 3.66q1.94 2.45 3.03 6.21 1.09 3.75 1.09 8.88m-6.88 0q0-4.24-.62-7.02t-1.66-4.43-2.39-2.31-2.81-.66q-1.43 0-2.77.66t-2.36 2.31q-1.03 1.65-1.64 4.43-.6 2.78-.6 7.02t.6 7.02q.61 2.78 1.64 4.43 1.02 1.64 2.36 2.31 1.34.66 2.77.66 1.46 0 2.81-.66 1.35-.67 2.39-2.31 1.04-1.65 1.66-4.43t.62-7.02m33.91-19.52-11.58 14.17-1.35 1.68q1.13-.57 2.44-.88t2.82-.31q2.21 0 4.31.73 2.09.73 3.68 2.2 1.6 1.47 2.57 3.66.97 2.18.97 5.1 0 2.73-1 5.12t-2.81 4.17-4.36 2.81q-2.55 1.02-5.63 1.02-3.13 0-5.61-1-2.49-1-4.24-2.79-1.76-1.8-2.69-4.32-.93-2.53-.93-5.6 0-2.76 1.12-5.66t3.47-6.04l9.31-12.5q.49-.64 1.42-1.1t2.15-.46zm-10.07 34.02q1.59 0 2.93-.54 1.33-.54 2.29-1.51.96-.98 1.5-2.29.54-1.3.54-2.84 0-1.68-.51-3.01-.51-1.34-1.46-2.27-.94-.93-2.27-1.42-1.32-.49-2.91-.49-1.6 0-2.89.54-1.3.54-2.22 1.5t-1.43 2.27-.51 2.82q0 1.62.44 2.96.45 1.34 1.33 2.28.87.94 2.17 1.47t3 .53"/></svg>