<svg xmlns="http://www.w3.org/2000/svg" width="473" height="266" viewBox="0 0 473 266"><rect width="100%" height="100%" fill="#DDDDDD"/><path fill="#999999" d="M102.785 138.605h13.86v-14.9q0-2.11.28-4.66zm20.63 0h5.73v4.51q0 .63-.4 1.08-.41.46-1.17.46h-4.16v11.12h-6.77v-11.12h-19.22q-.78 0-1.38-.49t-.76-1.21l-.82-3.94 21.58-28.82h7.37zm10.27-28.38h31.47v3.37q0 1.51-.32 2.44-.31.93-.63 1.56l-17.26 35.53q-.53 1.11-1.51 1.88t-2.61.77h-5.64l17.61-34.81q.59-1.07 1.18-1.97.58-.89 1.3-1.71h-21.79q-.73 0-1.26-.54-.54-.53-.54-1.26zm41.11 13.42-4.1-.72q.48-3.28 1.83-5.75 1.35-2.48 3.39-4.13 2.03-1.65 4.66-2.49 2.63-.83 5.65-.83 3.15 0 5.69.89 2.53.9 4.33 2.49 1.79 1.59 2.76 3.74.96 2.14.96 4.63 0 2.17-.49 3.82-.49 1.66-1.4 2.89-.92 1.22-2.27 2.07-1.36.86-3.06 1.42 4.1 1.29 6.11 3.94 2.02 2.65 2.02 6.65 0 3.4-1.26 6.01-1.26 2.62-3.4 4.4t-4.96 2.69-5.97.91q-3.44 0-5.99-.78-2.55-.79-4.44-2.33-1.89-1.55-3.21-3.78-1.32-2.24-2.27-5.17l3.43-1.42q1.36-.56 2.54-.3 1.18.27 1.72 1.28.56 1.1 1.24 2.17t1.62 1.91q.95.83 2.22 1.35 1.28.52 3.04.52 1.99 0 3.47-.64 1.48-.65 2.47-1.69t1.48-2.31q.49-1.28.49-2.57 0-1.64-.35-2.98-.34-1.34-1.45-2.28-1.1-.95-3.16-1.48-2.06-.54-5.53-.54v-5.54q2.87-.03 4.76-.54 1.89-.5 3-1.4 1.12-.9 1.56-2.16t.44-2.77q0-3.21-1.79-4.88-1.8-1.67-4.79-1.67-1.38 0-2.55.39-1.17.4-2.09 1.11-.93.7-1.56 1.65-.63.94-.95 2.08-.53 1.45-1.4 1.92t-2.44.22m77.49 21.7-4.13 4.07-10.68-10.68-10.77 10.74-4.13-4.06 10.78-10.81-10.27-10.27 4.09-4.09 10.27 10.27 10.21-10.21 4.16 4.1-10.24 10.23zm37.92 3.18h11.69q1.26 0 2 .71t.74 1.88v4.66h-31.25v-2.58q0-.79.33-1.66.33-.86 1.06-1.56l13.83-13.86q1.73-1.76 3.1-3.37 1.37-1.6 2.28-3.18.92-1.57 1.41-3.2.48-1.62.48-3.41 0-1.64-.47-2.89-.47-1.24-1.34-2.09-.86-.85-2.08-1.28-1.21-.42-2.72-.42-1.39 0-2.57.39-1.18.4-2.09 1.11-.92.7-1.55 1.65-.63.94-.94 2.08-.54 1.45-1.39 1.92t-2.45.22l-4.1-.72q.47-3.28 1.83-5.75 1.35-2.48 3.38-4.13 2.04-1.65 4.67-2.49 2.63-.83 5.65-.83 3.15 0 5.76.93 2.62.93 4.48 2.63t2.9 4.09q1.04 2.4 1.04 5.32 0 2.53-.75 4.67-.74 2.14-1.98 4.09-1.24 1.96-2.91 3.78-1.67 1.83-3.5 3.72l-10.27 10.49q1.48-.44 2.95-.68 1.46-.24 2.78-.24m47.29-38.3-13.52 16.54-1.57 1.95q1.32-.66 2.85-1.02t3.29-.36q2.58 0 5.02.85t4.3 2.56q1.86 1.72 3 4.27 1.13 2.55 1.13 5.96 0 3.18-1.17 5.96-1.16 2.79-3.27 4.87t-5.09 3.28q-2.98 1.19-6.57 1.19-3.65 0-6.55-1.16-2.9-1.17-4.94-3.26-2.05-2.1-3.14-5.04-1.08-2.95-1.08-6.54 0-3.21 1.3-6.6 1.31-3.38 4.05-7.04l10.87-14.58q.56-.76 1.65-1.29 1.09-.54 2.51-.54zm-11.75 39.69q1.85 0 3.41-.63t2.68-1.76q1.12-1.14 1.75-2.66.63-1.53.63-3.33 0-1.95-.6-3.51t-1.7-2.65q-1.1-1.08-2.65-1.65-1.54-.57-3.4-.57t-3.37.63-2.58 1.75-1.67 2.65q-.6 1.52-.6 3.29 0 1.89.52 3.45t1.54 2.66q1.03 1.1 2.54 1.72 1.51.61 3.5.61m48.29-39.69-13.52 16.54-1.57 1.95q1.32-.66 2.85-1.02t3.29-.36q2.58 0 5.02.85t4.3 2.56q1.86 1.72 3 4.27 1.13 2.55 1.13 5.96 0 3.18-1.17 5.96-1.16 2.79-3.27 4.87t-5.09 3.28q-2.98 1.19-6.57 1.19-3.65 0-6.55-1.16-2.9-1.17-4.94-3.26-2.05-2.1-3.14-5.04-1.09-2.95-1.09-6.54 0-3.21 1.31-6.6 1.31-3.38 4.05-7.04l10.87-14.58q.56-.76 1.65-1.29 1.09-.54 2.51-.54zm-11.75 39.69q1.85 0 3.41-.63t2.68-1.76q1.12-1.14 1.75-2.66.63-1.53.63-3.33 0-1.95-.6-3.51t-1.7-2.65q-1.1-1.08-2.65-1.65-1.54-.57-3.4-.57t-3.37.63-2.58 1.75-1.67 2.65q-.6 1.52-.6 3.29 0 1.89.52 3.45t1.54 2.66q1.03 1.1 2.54 1.72 1.51.61 3.5.61"/></svg>