<svg xmlns="http://www.w3.org/2000/svg" width="728" height="90" viewBox="0 0 728 90"><rect width="100%" height="100%" fill="#DDDDDD"/><path fill="#999999" d="M276.375 28.735h22.48v2.4q0 1.08-.23 1.75-.23.66-.45 1.11l-12.33 25.38q-.38.79-1.08 1.34t-1.87.55h-4.02l12.57-24.86q.43-.77.85-1.41.41-.64.93-1.22h-15.57q-.52 0-.9-.39-.38-.38-.38-.9zm37.73 27.36h8.35q.9 0 1.43.5.52.51.52 1.34v3.33h-22.32v-1.84q0-.57.24-1.19t.75-1.11l9.88-9.9q1.24-1.26 2.22-2.41.98-1.14 1.63-2.27.65-1.12 1-2.28t.35-2.45q0-1.16-.34-2.05t-.95-1.5q-.62-.61-1.49-.91t-1.95-.3q-.99 0-1.83.28t-1.5.78q-.65.51-1.1 1.19-.45.67-.67 1.48-.39 1.03-.99 1.37-.61.34-1.76.16l-2.92-.52q.33-2.34 1.3-4.1.97-1.77 2.42-2.95t3.33-1.78q1.88-.59 4.04-.59 2.25 0 4.12.66 1.86.66 3.19 1.88 1.33 1.21 2.07 2.92t.74 3.8q0 1.81-.52 3.34-.53 1.52-1.42 2.92t-2.08 2.7q-1.2 1.3-2.5 2.66l-7.34 7.49q1.06-.32 2.11-.49 1.04-.16 1.99-.16m25.42 1.19q1.38 0 2.41-.4 1.04-.39 1.75-1.09.7-.7 1.06-1.66.36-.97.36-2.09 0-2.68-1.48-4.06-1.49-1.37-4.1-1.37t-4.09 1.37q-1.49 1.38-1.49 4.06 0 1.12.36 2.09.36.96 1.07 1.66t1.75 1.09q1.03.4 2.4.4m0-24.73q-1.23 0-2.13.38t-1.5 1.03q-.6.64-.88 1.47t-.28 1.76q0 .96.24 1.87.23.91.8 1.62.56.71 1.48 1.14t2.27.43 2.28-.43q.92-.43 1.48-1.14t.8-1.62.24-1.87q0-.93-.3-1.76-.29-.83-.87-1.47-.59-.65-1.49-1.03t-2.14-.38m5.49 11.75q2.97.96 4.39 2.95 1.42 2 1.42 4.88 0 2.16-.82 3.91-.82 1.76-2.31 2.99-1.48 1.24-3.56 1.91-2.09.68-4.61.68t-4.6-.68q-2.08-.67-3.56-1.91-1.49-1.23-2.31-2.99-.82-1.75-.82-3.91 0-2.88 1.42-4.88 1.41-1.99 4.38-2.95-2.36-.99-3.54-2.82-1.18-1.82-1.18-4.38 0-1.85.75-3.45.76-1.59 2.11-2.78 1.35-1.18 3.23-1.84 1.87-.66 4.12-.66t4.13.66 3.23 1.84q1.35 1.19 2.11 2.78.75 1.6.75 3.45 0 2.56-1.18 4.38-1.18 1.83-3.55 2.82m42.17 9.51-2.95 2.91-7.63-7.63-7.69 7.67-2.95-2.9 7.7-7.72-7.34-7.33 2.93-2.93 7.33 7.34 7.29-7.29 2.97 2.92-7.31 7.31zm20.79-15.32q0 2.72 1.41 4.15 1.4 1.43 3.99 1.43 1.35 0 2.41-.43 1.05-.42 1.77-1.17.72-.74 1.1-1.75.37-1.01.37-2.18 0-1.33-.41-2.38-.4-1.04-1.15-1.76-.74-.72-1.76-1.11-1.03-.38-2.24-.38-1.26 0-2.27.42-1.02.41-1.74 1.16-.72.74-1.1 1.76-.38 1.03-.38 2.24m-2.72 22.77 10.1-12.62q.38-.47.72-.92t.65-.91q-1.12.73-2.47 1.1t-2.84.37q-1.69 0-3.31-.59-1.62-.58-2.88-1.76-1.26-1.19-2.03-2.93-.78-1.74-.78-4.08 0-2.18.81-4.1.81-1.91 2.27-3.35 1.47-1.44 3.51-2.27 2.05-.83 4.53-.83 2.49 0 4.49.78 1.99.79 3.39 2.21 1.41 1.42 2.16 3.4.76 1.98.76 4.34 0 1.51-.26 2.86t-.73 2.59q-.48 1.25-1.15 2.45-.68 1.19-1.51 2.36l-7.45 10.62q-.38.54-1.14.91-.77.37-1.74.37zm46.37-16.27q0 4.26-.91 7.39-.91 3.14-2.52 5.19t-3.8 3.05q-2.2 1-4.74 1t-4.71-1q-2.18-1-3.77-3.05-1.6-2.05-2.5-5.19-.9-3.13-.9-7.39 0-4.27.9-7.4t2.5-5.17q1.59-2.05 3.77-3.05 2.17-1 4.71-1t4.74 1q2.19 1 3.8 3.05 1.61 2.04 2.52 5.17t.91 7.4m-5.74 0q0-3.53-.52-5.85-.51-2.31-1.38-3.69-.87-1.37-1.99-1.92-1.13-.55-2.34-.55-1.19 0-2.31.55-1.11.55-1.97 1.92-.85 1.38-1.36 3.69-.5 2.32-.5 5.85 0 3.54.5 5.85.51 2.32 1.36 3.69.86 1.38 1.97 1.93 1.12.55 2.31.55 1.21 0 2.34-.55 1.12-.55 1.99-1.93.87-1.37 1.38-3.69.52-2.31.52-5.85"/></svg>